<?xml version="1.0" encoding="utf-8"?>
<!-- Generator: Adobe Illustrator 24.0.0, SVG Export Plug-In . SVG Version: 6.00 Build 0)  -->
<svg version="1.1" id="Camada_1" xmlns="http://www.w3.org/2000/svg" xmlns:xlink="http://www.w3.org/1999/xlink" x="0px" y="0px"
	 viewBox="0 0 1217 582" style="enable-background:new 0 0 1217 582;" xml:space="preserve">
<style type="text/css">
	.st0{fill:#FFFFFF;}
	.st1{fill:#AD034D;}
</style>
<circle class="st0" cx="6331.8" cy="4008.8" r="11.5"/>
<text transform="matrix(1 0 0 1 -2112.5146 1805.2161)" style="display:none;fill:#FFFFFF;enable-background:new    ; font-family:'Solomon-Sans-SemiBold'; font-size:9.2475px;">ad034d</text>
<g>
	<g>
		<g>
			<path class="st1" d="M323.7,578.3c-74.9,0-145.6-28.6-199.6-80.8c-55.2-53.3-86.3-125-87.6-201.7
				c-1.3-76.7,27.4-149.4,80.7-204.6C170.6,36.1,242.2,5,319,3.7c49.5-0.8,98.5,11.1,141.8,34.7c41.9,22.8,77.9,56,104,96
				l-19.3,12.5c-24-36.8-57.1-67.4-95.7-88.4C410,36.9,364.9,25.9,319.3,26.6c-70.6,1.2-136.5,29.8-185.6,80.6
				c-49,50.8-75.4,117.7-74.2,188.3S89.3,432,140.1,481.1s117.6,75.5,188.2,74.3c42.2-0.7,82.4-11.1,119.4-30.7
				c35.3-18.8,66.4-45.8,90-78.3l18.6,13.5c-25.6,35.2-59.5,64.7-97.8,85c-40.2,21.4-83.9,32.6-129.8,33.4
				C327,578.3,325.4,578.3,323.7,578.3z"/>
		</g>
	</g>
	<g>
		<g>
			<g>
				<path class="st1" d="M247,279.2c21.1,5.5,43.9,13.8,42.7,44.6c-1.4,25.9-25.3,38.6-46.8,38.6c-18.1,0-37.2-10.1-45.2-31.6
					l18.5-9.2c6.4,13.8,15.8,20.5,27.3,20.5c13.5,0.2,23.2-8,23.8-19.5c1.2-16.4-14.8-21.1-26.1-24c-17.4-4.7-40.4-13.3-39.4-40.7
					c0.6-26.7,22.4-38.4,43.1-38.4c17.9,0,34.9,10.3,42.1,30.4l-17.5,8c-5.1-12.7-15.4-18.5-24.8-18.5c-10.1-0.2-20.3,5.8-21.1,19.1
					C222.8,271.4,237.2,276.7,247,279.2z"/>
			</g>
			<g>
				<path class="st1" d="M389,359.3l-0.3-11.9c-7.2,10.9-16.8,13.3-28.1,13.3c-26.3,0-38.4-17.4-38.4-34.3
					c0-18.3,14.8-34.5,45.6-33.3c6.2,0.2,16.2,1.8,20.5,5.8V295c0-16-12.5-20.1-24.2-19.9c-10.5,0.2-18.9,3.3-27.3,8.4l-8.6-13.5
					c27.1-23.2,80.3-17.5,80.3,25v64.3H389z M388.5,333v-16.8c-5.1-4.3-12.9-6.4-20.3-6.6c-13.3-0.4-25.7,4.5-25.7,16.8
					c0,11.1,6.8,16.2,23.2,16.2C373.3,342.6,383.3,338.7,388.5,333z"/>
			</g>
			<g>
				<path class="st1" d="M493,240.8c-2.9-0.6-5.3-1-7.6-0.8c-9,0.4-13.1,6-13.1,13.1v7.4h20.3V278h-20.3v81.3H451V278h-14v-17.5h14
					v-7.4c0-19.7,12.5-31.2,32.6-31c2.9,0,6,0.2,9.4,0.8V240.8z"/>
			</g>
			<g>
				<path class="st1" d="M594,329.1l15,9.6c-11.5,15.4-26.5,22.2-42.9,22.2c-33.7,0-50.7-25.7-50.5-51.3c0-25.5,17.5-51.3,50.3-51.5
					c33.1-0.2,53.4,29,47.6,60.4h-76.6c2.3,12.3,12.7,23.4,29.2,23.4C574.9,342,585.8,340.4,594,329.1z M593.8,302.4
					c-0.6-17.4-14.4-25.5-28.3-25.5c-14.8,0-27.9,9-28.3,25.5H593.8z"/>
			</g>
			<g>
				<path class="st1" d="M678.2,359.5H656V222.3h42.5c31.6,0,47.2,22.8,47.2,45.2c0,22.6-15.6,44.5-47,44.5h-20.5V359.5z
					 M723.5,267.5c0-11.5-8.6-25-25-25h-20.3v49.1h20.3C715.1,291.7,723.5,278.8,723.5,267.5z"/>
			</g>
			<g>
				<path class="st1" d="M816.1,359.5c-23.4,2.5-35.9-7.8-35.9-30.6v-106h21.3V329c0,8,2.7,12.5,14.6,11.5V359.5z"/>
			</g>
			<g>
				<path class="st1" d="M913.7,359.3l-0.3-11.9c-7.2,10.9-16.8,13.3-28.1,13.3c-26.3,0-38.4-17.4-38.4-34.3
					c0-18.3,14.8-34.5,45.6-33.3c6.2,0.2,16.2,1.8,20.5,5.8V295c0-16-12.5-20.1-24.2-19.9c-10.5,0.2-18.9,3.3-27.3,8.4l-8.6-13.5
					c27.1-23.2,80.3-17.5,80.3,25v64.3H913.7z M913.2,333v-16.8c-5.1-4.3-12.9-6.4-20.3-6.6c-13.3-0.4-25.7,4.5-25.7,16.8
					c0,11.1,6.8,16.2,23.2,16.2C898,342.6,907.9,338.7,913.2,333z"/>
			</g>
			<g>
				<path class="st1" d="M1043.6,287.8c-7.8-7.6-16.8-9.7-25.2-9.7c-15.2-0.2-29.8,10.9-30,32.4c0,17,10.5,31.8,30.2,31.8
					c9.6,0,16.4-2.3,25.5-10.5l12.1,13.1c-10.5,10.5-23.8,16.8-37.6,16.8c-33.7,0-51.3-24.6-51.3-51.5c0.2-26.9,18.3-51.3,51.3-51.5
					c13.8,0,25.7,5.1,36.8,16L1043.6,287.8z"/>
			</g>
			<g>
				<path class="st1" d="M1160,329.1l15,9.6c-11.5,15.4-26.5,22.2-42.9,22.2c-33.7,0-50.7-25.7-50.5-51.3
					c0-25.5,17.5-51.3,50.3-51.5c33.1-0.2,53.4,29,47.6,60.4h-76.6c2.3,12.3,12.7,23.4,29.2,23.4
					C1140.9,342,1151.8,340.4,1160,329.1z M1159.8,302.4c-0.6-17.4-14.4-25.5-28.3-25.5c-14.8,0-27.9,9-28.3,25.5H1159.8z"/>
			</g>
		</g>
	</g>
</g>
</svg>
