<?xml version="1.0" encoding="utf-8"?>
<!-- Generator: Adobe Illustrator 24.0.0, SVG Export Plug-In . SVG Version: 6.00 Build 0)  -->
<svg version="1.1" id="Camada_1" xmlns="http://www.w3.org/2000/svg" xmlns:xlink="http://www.w3.org/1999/xlink" x="0px" y="0px"
	 viewBox="0 0 1080 181" style="enable-background:new 0 0 1080 181;" xml:space="preserve">
<style type="text/css">
	.st0{fill:#AD034D;}
</style>
<g>
	<g>
		<g>
			<g>
				<path class="st0" d="M57.7,78.1c23.1,5.8,47.6,15.1,46.8,48.6c-1.4,28.1-27.7,41.8-51.2,41.8c-19.8,0-40.7-11.2-49.4-34.6
					l20.2-10.1c7.2,15.1,17.3,22.3,29.5,22.3c14.4,0,25.2-8.6,25.9-21.3c1.4-17.7-16.2-23.1-28.8-25.9C31.7,93.6,6.9,84.6,8,54.3
					c0.4-29.2,24.1-41.8,47.2-41.8c19.5,0,37.8,11.5,45.8,33.2l-19.1,8.6c-5.8-13.7-16.9-20.2-27-20.2c-11.2,0-22,6.1-23.1,20.9
					C31.4,69.4,47.2,75.2,57.7,78.1z"/>
			</g>
			<g>
				<path class="st0" d="M212.6,165.6l-0.4-13c-7.9,11.9-18,14.4-30.6,14.4c-28.8,0-41.8-19.1-41.8-37.5c0-19.8,16.2-37.5,49.7-36
					c6.5,0,17.7,1.8,22.3,6.1v-4.3c0-17.7-13.7-22-26.3-21.6c-11.5,0-20.9,3.6-29.5,9.4l-9.4-14.4c29.5-25.2,87.9-19.1,87.9,27.4
					v70.3h-22L212.6,165.6L212.6,165.6z M212.3,136.8v-18c-5.8-4.7-14.1-7.2-22-7.2c-14.4-0.4-28.1,4.7-28.1,18
					c0,11.9,7.6,17.7,25.2,17.7C195.4,146.9,206.5,142.9,212.3,136.8z"/>
			</g>
			<g>
				<path class="st0" d="M326.2,36.3c-3.2-0.4-5.8-0.7-8.3-0.7c-9.7,0.4-14.1,6.5-14.1,14.1v7.9h22v19.1h-22v88.6h-23.4V76.6h-15.5
					V57.5h15.5v-7.9c0-21.6,13.7-33.9,35.3-33.9c3.2,0,6.5,0,10.1,0.7v19.8L326.2,36.3L326.2,36.3z"/>
			</g>
			<g>
				<path class="st0" d="M436.4,132.5l16.2,10.5c-12.3,16.9-29.2,24.1-46.8,24.1c-36.8,0-55.1-28.1-55.1-56.2
					c0-27.7,19.1-56.2,54.8-56.2c36,0,58.4,31.7,52.3,65.6h-83.2c2.5,13.3,13.7,25.6,31.7,25.6C415.5,146.5,427.4,144.7,436.4,132.5
					z M436.1,103.3c-0.4-19.1-15.9-27.7-31-27.7c-16.2,0-30.6,9.7-31,27.7H436.1z"/>
			</g>
			<g>
				<path class="st0" d="M528.3,165.6h-24.1V16.1h46.5c34.6,0,51.5,24.9,51.5,49.4c0,24.9-17.3,48.6-51.2,48.6h-22.3v51.5H528.3z
					 M577.7,65.5c0-12.3-9.4-27.4-27.4-27.4h-22v53.3h22C568.3,91.4,577.7,77.7,577.7,65.5z"/>
			</g>
			<g>
				<path class="st0" d="M678.6,165.6c-25.6,2.5-39.3-8.3-39.3-33.5V16.4h23.4v115.7c0,8.6,3.2,13.7,15.9,12.3V165.6z"/>
			</g>
			<g>
				<path class="st0" d="M784.9,165.6l-0.4-13c-7.9,11.9-18,14.4-30.3,14.4c-28.8,0-41.8-19.1-41.8-37.5c0-19.8,16.2-37.5,49.7-36
					c6.5,0,17.7,1.8,22.3,6.1v-4.3c0-17.7-13.7-22-26.3-21.6c-11.5,0-20.9,3.6-29.5,9.4l-9.4-14.4c29.5-25.2,87.9-19.1,87.9,27.4
					v70.3h-22v-0.7H784.9z M784.5,136.8v-18c-5.8-4.7-14.1-7.2-22-7.2c-14.4-0.4-28.1,4.7-28.1,18c0,11.9,7.6,17.7,25.2,17.7
					C768,146.9,778.8,142.9,784.5,136.8z"/>
			</g>
			<g>
				<path class="st0" d="M926.5,87.4c-8.3-8.3-18-10.5-27.4-10.5c-16.9,0-32.8,11.9-32.8,35.3c0,18.4,11.5,35,33.2,35
					c10.5,0,17.7-2.5,27.7-11.5l13.3,14.1c-11.5,11.5-25.9,18-41.1,18c-36.8,0-56.2-27-56.2-56.2c0-29.5,19.8-56.2,56.2-56.2
					c15.1,0,28.1,5.8,40,17.7L926.5,87.4z"/>
			</g>
			<g>
				<path class="st0" d="M1053.7,132.5l16.2,10.5c-12.3,16.9-29.2,24.1-46.8,24.1c-36.8,0-55.1-28.1-55.1-56.2
					c0-27.7,19.1-56.2,54.8-56.2c36,0,58.4,31.7,52.3,65.6h-83.6c2.5,13.3,13.7,25.6,31.7,25.6
					C1033.2,146.5,1045.1,144.7,1053.7,132.5z M1053.7,103.3c-0.4-19.1-15.9-27.7-31-27.7c-16.2,0-30.3,9.7-31,27.7H1053.7z"/>
			</g>
		</g>
	</g>
</g>
</svg>
